<?xml version="1.0" encoding="UTF-8" standalone="no"?>
<!DOCTYPE svg PUBLIC "-//W3C//DTD SVG 1.1//EN"
 "http://www.w3.org/Graphics/SVG/1.1/DTD/svg11.dtd">
<!-- Generated by graphviz version 14.1.2 (20260124.0452)
 -->
<!-- Title: G Pages: 1 -->
<svg width="364pt" height="369pt"
 viewBox="0.00 0.00 364.00 369.00" xmlns="http://www.w3.org/2000/svg" xmlns:xlink="http://www.w3.org/1999/xlink">
<g id="graph0" class="graph" transform="scale(1 1) rotate(0) translate(4 365)">
<title>G</title><style>.edge>path:hover{stroke-width:8}</style>
<polygon fill="white" stroke="none" points="-4,4 -4,-365 359.53,-365 359.53,4 -4,4"/>
<!-- flask -->
<g id="node1" class="node">
<title>flask</title><style>.edge>path:hover{stroke-width:8}</style>
<ellipse fill="#c04040" stroke="black" cx="27" cy="-234" rx="27" ry="18"/>
<text xml:space="preserve" text-anchor="middle" x="27" y="-230.12" font-family="Helvetica,sans-Serif" font-size="10.00" fill="#ffffff">flask</text>
</g>
<!-- src_flask_app -->
<g id="node8" class="node">
<title>src_flask_app</title><style>.edge>path:hover{stroke-width:8}</style>
<ellipse fill="#3535a1" stroke="black" cx="190" cy="-90" rx="44.08" ry="18"/>
<text xml:space="preserve" text-anchor="middle" x="190" y="-86.12" font-family="Helvetica,sans-Serif" font-size="10.00" fill="#ffffff">src.flask_app</text>
</g>
<!-- flask&#45;&gt;src_flask_app -->
<g id="edge1" class="edge">
<title>flask&#45;&gt;src_flask_app</title><style>.edge>path:hover{stroke-width:8}</style>
<path fill="none" stroke="black" d="M26.03,-215.79C25.86,-196.12 28.61,-164.06 46,-144 68.77,-117.74 105.73,-104.48 136.51,-97.79"/>
<polygon fill="#c04040" stroke="black" points="136.92,-101.28 146.05,-95.9 135.56,-94.41 136.92,-101.28"/>
</g>
<!-- psycopg -->
<g id="node2" class="node">
<title>psycopg</title><style>.edge>path:hover{stroke-width:8}</style>
<ellipse fill="#26d926" stroke="black" cx="219" cy="-343" rx="31.21" ry="18"/>
<text xml:space="preserve" text-anchor="middle" x="219" y="-339.12" font-family="Helvetica,sans-Serif" font-size="10.00" fill="#000000">psycopg</text>
</g>
<!-- src_db -->
<g id="node6" class="node">
<title>src_db</title><style>.edge>path:hover{stroke-width:8}</style>
<ellipse fill="#2424d0" stroke="black" cx="265" cy="-234" rx="27" ry="18"/>
<text xml:space="preserve" text-anchor="middle" x="265" y="-230.12" font-family="Helvetica,sans-Serif" font-size="10.00" fill="#ffffff">src.db</text>
</g>
<!-- psycopg&#45;&gt;src_db -->
<g id="edge2" class="edge">
<title>psycopg&#45;&gt;src_db</title><style>.edge>path:hover{stroke-width:8}</style>
<path fill="none" stroke="black" d="M207,-288C209.25,-272.4 221.28,-260.09 233.81,-251.27"/>
<polygon fill="#26d926" stroke="black" points="235.5,-254.34 242.06,-246.02 231.74,-248.44 235.5,-254.34"/>
</g>
<!-- src_etl -->
<g id="node7" class="node">
<title>src_etl</title><style>.edge>path:hover{stroke-width:8}</style>
<ellipse fill="#3a3ab0" stroke="black" cx="321" cy="-162" rx="27" ry="18"/>
<text xml:space="preserve" text-anchor="middle" x="321" y="-158.12" font-family="Helvetica,sans-Serif" font-size="10.00" fill="#ffffff">src.etl</text>
</g>
<!-- psycopg&#45;&gt;src_etl -->
<g id="edge3" class="edge">
<title>psycopg&#45;&gt;src_etl</title><style>.edge>path:hover{stroke-width:8}</style>
<path fill="none" stroke="black" d="M321,-233C323.28,-219.56 323.56,-204.46 323.16,-191.74"/>
<polygon fill="#26d926" stroke="black" points="326.66,-191.72 322.68,-181.91 319.67,-192.07 326.66,-191.72"/>
<path fill="none" stroke="black" d="M240.92,-329.94C268.59,-313.02 313.5,-279.28 321,-235"/>
</g>
<!-- src_query_data -->
<g id="node9" class="node">
<title>src_query_data</title><style>.edge>path:hover{stroke-width:8}</style>
<ellipse fill="#3a3ab0" stroke="black" cx="190" cy="-162" rx="47.63" ry="18"/>
<text xml:space="preserve" text-anchor="middle" x="190" y="-158.12" font-family="Helvetica,sans-Serif" font-size="10.00" fill="#ffffff">src.query_data</text>
</g>
<!-- psycopg&#45;&gt;src_query_data -->
<g id="edge4" class="edge">
<title>psycopg&#45;&gt;src_query_data</title><style>.edge>path:hover{stroke-width:8}</style>
<path fill="none" stroke="black" d="M209,-233C205.05,-219.29 200.88,-204 197.45,-191.22"/>
<polygon fill="#26d926" stroke="black" points="200.89,-190.52 194.93,-181.76 194.12,-192.33 200.89,-190.52"/>
<path fill="none" stroke="black" d="M207,-288C210.36,-264.67 215.52,-257.65 209,-235"/>
<path fill="none" stroke="black" d="M212.03,-325.42C208.47,-315.03 205.22,-301.33 207,-289"/>
</g>
<!-- psycopg_sql -->
<g id="node3" class="node">
<title>psycopg_sql</title><style>.edge>path:hover{stroke-width:8}</style>
<ellipse fill="#3bce3b" stroke="black" cx="315" cy="-343" rx="40.53" ry="18"/>
<text xml:space="preserve" text-anchor="middle" x="315" y="-339.12" font-family="Helvetica,sans-Serif" font-size="10.00" fill="#000000">psycopg.sql</text>
</g>
<!-- psycopg_sql&#45;&gt;src_db -->
<g id="edge5" class="edge">
<title>psycopg_sql&#45;&gt;src_db</title><style>.edge>path:hover{stroke-width:8}</style>
<path fill="none" stroke="black" d="M321,-288C318.26,-273.15 307.06,-261.09 295.38,-252.25"/>
<polygon fill="#3bce3b" stroke="black" points="297.54,-249.49 287.32,-246.72 293.58,-255.26 297.54,-249.49"/>
<path fill="none" stroke="black" d="M319.52,-324.72C321.6,-314.32 323.18,-300.84 321,-289"/>
</g>
<!-- psycopg_sql&#45;&gt;src_etl -->
<g id="edge6" class="edge">
<title>psycopg_sql&#45;&gt;src_etl</title><style>.edge>path:hover{stroke-width:8}</style>
<path fill="none" stroke="black" d="M321,-288C316.73,-264.84 317.07,-258.23 321,-235"/>
</g>
<!-- psycopg_sql&#45;&gt;src_query_data -->
<g id="edge7" class="edge">
<title>psycopg_sql&#45;&gt;src_query_data</title><style>.edge>path:hover{stroke-width:8}</style>
<path fill="none" stroke="black" d="M291.31,-328.35C264,-310.89 221.29,-277.72 209,-235"/>
</g>
<!-- src___main__ -->
<g id="node4" class="node">
<title>src___main__</title><style>.edge>path:hover{stroke-width:8}</style>
<ellipse fill="#4c4cb3" stroke="black" cx="190" cy="-18" rx="44.08" ry="18"/>
<text xml:space="preserve" text-anchor="middle" x="190" y="-14.12" font-family="Helvetica,sans-Serif" font-size="10.00" fill="#ffffff">src.__main__</text>
</g>
<!-- src_config -->
<g id="node5" class="node">
<title>src_config</title><style>.edge>path:hover{stroke-width:8}</style>
<ellipse fill="#4747c2" stroke="black" cx="90" cy="-162" rx="34.76" ry="18"/>
<text xml:space="preserve" text-anchor="middle" x="90" y="-158.12" font-family="Helvetica,sans-Serif" font-size="10.00" fill="#ffffff">src.config</text>
</g>
<!-- src_config&#45;&gt;src_flask_app -->
<g id="edge8" class="edge">
<title>src_config&#45;&gt;src_flask_app</title><style>.edge>path:hover{stroke-width:8}</style>
<path fill="none" stroke="black" d="M109.76,-147.17C123.94,-137.24 143.31,-123.68 159.47,-112.37"/>
<polygon fill="#4747c2" stroke="black" points="161.13,-115.48 167.31,-106.88 157.11,-109.75 161.13,-115.48"/>
</g>
<!-- src_db&#45;&gt;src_etl -->
<g id="edge9" class="edge">
<title>src_db&#45;&gt;src_etl</title><style>.edge>path:hover{stroke-width:8}</style>
<path fill="none" stroke="black" d="M277.15,-217.81C284.34,-208.82 293.61,-197.23 301.78,-187.03"/>
<polygon fill="#2424d0" stroke="black" points="304.41,-189.34 307.93,-179.34 298.95,-184.96 304.41,-189.34"/>
</g>
<!-- src_db&#45;&gt;src_flask_app -->
<g id="edge10" class="edge">
<title>src_db&#45;&gt;src_flask_app</title><style>.edge>path:hover{stroke-width:8}</style>
<path fill="none" stroke="black" d="M264.59,-215.52C263.47,-196.74 259.64,-166.56 247,-144 240.48,-132.36 230.5,-121.81 220.71,-113.24"/>
<polygon fill="#2424d0" stroke="black" points="222.99,-110.58 213.04,-106.92 218.53,-115.98 222.99,-110.58"/>
</g>
<!-- src_db&#45;&gt;src_query_data -->
<g id="edge11" class="edge">
<title>src_db&#45;&gt;src_query_data</title><style>.edge>path:hover{stroke-width:8}</style>
<path fill="none" stroke="black" d="M249.82,-218.83C240,-209.67 226.96,-197.5 215.57,-186.86"/>
<polygon fill="#2424d0" stroke="black" points="218.06,-184.4 208.36,-180.14 213.28,-189.52 218.06,-184.4"/>
</g>
<!-- src_etl&#45;&gt;src_flask_app -->
<g id="edge12" class="edge">
<title>src_etl&#45;&gt;src_flask_app</title><style>.edge>path:hover{stroke-width:8}</style>
<path fill="none" stroke="black" d="M300.24,-149.91C280.38,-139.3 250.01,-123.07 226.17,-110.33"/>
<polygon fill="#3a3ab0" stroke="black" points="227.88,-107.27 217.41,-105.65 224.58,-113.45 227.88,-107.27"/>
</g>
<!-- src_flask_app&#45;&gt;src___main__ -->
<g id="edge13" class="edge">
<title>src_flask_app&#45;&gt;src___main__</title><style>.edge>path:hover{stroke-width:8}</style>
<path fill="none" stroke="black" d="M190,-71.7C190,-64.41 190,-55.73 190,-47.54"/>
<polygon fill="#3535a1" stroke="black" points="193.5,-47.62 190,-37.62 186.5,-47.62 193.5,-47.62"/>
</g>
<!-- src_query_data&#45;&gt;src_flask_app -->
<g id="edge14" class="edge">
<title>src_query_data&#45;&gt;src_flask_app</title><style>.edge>path:hover{stroke-width:8}</style>
<path fill="none" stroke="black" d="M190,-143.7C190,-136.41 190,-127.73 190,-119.54"/>
<polygon fill="#3a3ab0" stroke="black" points="193.5,-119.62 190,-109.62 186.5,-119.62 193.5,-119.62"/>
</g>
</g>
</svg>
